<svg xmlns="http://www.w3.org/2000/svg" width="380" height="60" viewBox="0 0 380 60"><g transform="translate(-370 -713)"><rect width="380" height="60" transform="translate(370 713)" fill="none"/><g transform="translate(463.398 722.513)"><g transform="translate(-0.007)"><path d="M18.792,32.071h-7.15a7.321,7.321,0,0,1,0-.882,20.5,20.5,0,0,1,.18-2.236,6.879,6.879,0,0,1-6.1,3.54,5.676,5.676,0,0,1-4.172-1.544A5.014,5.014,0,0,1,0,27.057a6.117,6.117,0,0,1,1-3.209A6.488,6.488,0,0,1,3.51,21.542,10.7,10.7,0,0,1,6.8,20.408c1.113-.18,3.289-.431,6.528-.732a4.011,4.011,0,0,0,.241-1.083c0-1-.662-1.554-2.056-1.554a3.309,3.309,0,0,0-3.1,2.116L2.5,17.891q2.4-5.245,10.078-5.245A11.311,11.311,0,0,1,18.6,14.021a4.432,4.432,0,0,1,2.136,4.1,87.25,87.25,0,0,1-1.514,8.594,27.586,27.586,0,0,0-.582,3.64,8.734,8.734,0,0,0,.15,1.715Zm-6.227-9.025c-3.319.261-5.014,1.354-5.014,3.279a1.384,1.384,0,0,0,1.574,1.594,3.179,3.179,0,0,0,2.086-.953C11.863,26.355,12.334,25.051,12.565,23.046ZM31.878,6.54H24.939L20.2,32.071h6.949ZM45.917,27.317l-.792,4.753H28.73l.792-4.242L38.848,17.8H32l.852-4.583H48.594l-.692,3.64-9.8,10.459Zm19.5,4.753a8.736,8.736,0,0,1-.15-1.665,27.585,27.585,0,0,1,.582-3.64,87.251,87.251,0,0,0,1.514-8.594,4.432,4.432,0,0,0-2.136-4.151,11.331,11.331,0,0,0-6.067-1.374q-7.681,0-10.078,5.245L55,19.155a3.3,3.3,0,0,1,3.089-2.126c1.394,0,2.076.521,2.006,1.554a4.011,4.011,0,0,1-.241,1.083c-3.239.3-5.415.552-6.528.732a10.61,10.61,0,0,0-3.189,1.143,6.588,6.588,0,0,0-2.517,2.306,6.207,6.207,0,0,0-.993,3.209,5.014,5.014,0,0,0,1.5,3.861,5.706,5.706,0,0,0,4.182,1.544,6.859,6.859,0,0,0,6.087-3.54c-.1.862-.16,1.6-.17,2.236a7.322,7.322,0,0,0,0,.882Zm-6.257-9.025c-.231,2.006-.7,3.279-1.4,3.921a3.139,3.139,0,0,1-2.076.953,1.374,1.374,0,0,1-1.534-1.564Q54.2,23.467,59.164,23.046Z" transform="translate(0.007 0.018)" fill="#a4a4a4"/><path d="M135.275,7.77l-.441,4.713c-.752-.08-1.314-.13-1.685-.13a2.868,2.868,0,0,0-2.828,1.514,5.154,5.154,0,0,1,2.9,4.512,5.846,5.846,0,0,1-1.885,4.282q-1.875,1.885-6.919,1.875a16.546,16.546,0,0,1-1.755-.08c-.672-.07-1.153-.11-1.424-.11a1.6,1.6,0,0,0-1.123.4,1.193,1.193,0,0,0-.441.923,1,1,0,0,0,.3.722,1.173,1.173,0,0,0,.692.321c.261,0,1.384.08,3.359.14,2.166.08,3.58.15,4.222.231a6.548,6.548,0,0,1,2.116.742,4.6,4.6,0,0,1,1.825,1.735,4.794,4.794,0,0,1,.662,2.5,5.926,5.926,0,0,1-2.357,4.653c-1.564,1.324-4.543,2.006-8.915,2.006q-9.927,0-9.927-4.563,0-2.377,3.379-3.65a3.54,3.54,0,0,1-1.825-3.008q0-3.149,4.583-4.472a4.623,4.623,0,0,1-2.627-4.212,5.445,5.445,0,0,1,2.176-4.3q2.166-1.825,7.29-1.815a14.229,14.229,0,0,1,2.928.281q.812-5.295,5.8-5.295A15.9,15.9,0,0,1,135.275,7.77Zm-16.616,24.3c-.712.421-1.063.862-1.063,1.3q0,1.424,4.663,1.424a13.277,13.277,0,0,0,3.329-.291c.692-.191,1-.572,1-1.133a.7.7,0,0,0-.481-.732A8.253,8.253,0,0,0,124,32.388C120.9,32.218,119.1,32.067,118.659,32.067Zm5.435-10.91a2.266,2.266,0,0,0,1.865-.842,3.008,3.008,0,0,0,.682-1.905,1.825,1.825,0,0,0-2.006-2.076,2.286,2.286,0,0,0-1.925.862,3.239,3.239,0,0,0-.662,2.006,1.785,1.785,0,0,0,.592,1.424,2.206,2.206,0,0,0,1.454.5Z" transform="translate(0.316 0.021)" fill="#a4a4a4"/><path d="M155.177,13.13l-3.129,18.922H145.23l.622-3.55q-2.266,4.011-6.287,4.011a5.3,5.3,0,0,1-3.79-1.3,4.312,4.312,0,0,1-1.374-3.239,21.508,21.508,0,0,1,.381-3.008l1.955-11.823h7.29l-1.805,10.81a16.61,16.61,0,0,0-.251,1.845q0,1.414,1.294,1.414c1.635,0,2.707-1.574,3.239-4.723l1.534-9.356Z" transform="translate(0.379 0.036)" fill="#a4a4a4"/><path d="M174.054,32.054h-7.39a8.434,8.434,0,0,1-.06-.882,22.542,22.542,0,0,1,.14-2.256,6.959,6.959,0,0,1-6.207,3.57,6.117,6.117,0,0,1-4.352-1.554,5.094,5.094,0,0,1-1.675-3.891,6.017,6.017,0,0,1,.892-3.189,6.418,6.418,0,0,1,2.547-2.316,10.881,10.881,0,0,1,3.359-1.123q1.715-.271,6.729-.742a3.811,3.811,0,0,0,.231-1.083c0-1-.722-1.554-2.166-1.554a3.319,3.319,0,0,0-3.149,2.116l-6.147-1.253q2.326-5.265,10.288-5.265a12.244,12.244,0,0,1,6.317,1.394,4.543,4.543,0,0,1,2.3,4.111q0,1.213-1.344,8.6a25.424,25.424,0,0,0-.511,3.65,9.025,9.025,0,0,0,.2,1.665Zm-6.648-9.025q-5.144.391-5.144,3.3c0,1.053.551,1.584,1.655,1.584a3.2,3.2,0,0,0,2.136-.953c.7-.622,1.153-1.925,1.344-3.931Z" transform="translate(0.435 0.035)" fill="#a4a4a4"/><path d="M179.279,13.132h6.3l-.752,4.553c1.314-3.409,3.309-5.114,6.017-5.114a5.8,5.8,0,0,1,.882.09l-.842,6.739-1.284-.06a4.693,4.693,0,0,0-3.44,1.093,7.26,7.26,0,0,0-1.554,3.881l-1.294,7.741h-7.19Z" transform="translate(0.495 0.035)" fill="#a4a4a4"/><path d="M212.682,6.51,208.42,32.071h-6.709l.461-2.858c-1.544,2.276-3.419,3.419-5.606,3.419a5.756,5.756,0,0,1-4.412-2.006,8.243,8.243,0,0,1-1.855-5.776,14.581,14.581,0,0,1,2.567-8.423,7.661,7.661,0,0,1,6.558-3.76q3.429,0,4.623,2.7l1.464-8.8Zm-9.416,13.347a3.218,3.218,0,0,0,.06-.632,1.825,1.825,0,0,0-.572-1.364,1.905,1.905,0,0,0-1.374-.562c-1.284,0-2.206,1-2.768,2.958a18.521,18.521,0,0,0-.852,4.934c0,1.725.672,2.587,2.006,2.587s2.206-.862,2.637-2.587Z" transform="translate(0.535 0.018)" fill="#a4a4a4"/><path d="M82.917,27.657A28.078,28.078,0,0,1,77.09,10.74c2.928-.5,8.945-1.935,13.517-5.585,4.583,3.66,10.609,5.084,13.527,5.6a50.8,50.8,0,0,1-1,9.8l3.129,3.119A51.562,51.562,0,0,0,107.956,9.1V7.38l-1.7-.16c-.09,0-9.145-1-14.31-5.946L90.608,0,89.284,1.274C84.12,6.257,75.075,7.21,75,7.22l-1.7.16V9.1c0,8.4,2.256,15.4,6.949,21.259Z" transform="translate(0.21)" fill="#a4a4a4"/><path d="M90.579,40.9,83.8,34.124l2.677-2.677,4.1,4.091L100.637,25.48l2.687,2.677L90.579,40.9Z" transform="translate(0.239 0.071)" fill="#a4a4a4"/></g></g></g></svg>