<svg xmlns="http://www.w3.org/2000/svg" xmlns:xlink="http://www.w3.org/1999/xlink" width="380" height="60" viewBox="0 0 380 60"><defs><clipPath id="a"><rect width="153.491" height="40.628" fill="#a4a4a4"/></clipPath></defs><g transform="translate(-770 -713)"><rect width="380" height="60" transform="translate(770 713)" fill="none"/><g transform="translate(884.1 722.686)"><g transform="translate(0 0)" clip-path="url(#a)"><path d="M14.445,8.064H3.249a.153.153,0,0,0-.161.161v6.852a.152.152,0,0,0,.161.161h7.626a.455.455,0,0,1,.481.483v1.7a.454.454,0,0,1-.481.483H3.249a.153.153,0,0,0-.161.161v9.363a.456.456,0,0,1-.483.483H.483A.456.456,0,0,1,0,27.432V5.877a.456.456,0,0,1,.483-.483H14.445a.456.456,0,0,1,.483.483v1.7a.456.456,0,0,1-.483.483" transform="translate(0 2.951)" fill="#a4a4a4"/><path d="M22.257,27.432V5.877a.456.456,0,0,1,.483-.483h2.123a.457.457,0,0,1,.484.483V27.432a.457.457,0,0,1-.484.483H22.74a.456.456,0,0,1-.483-.483" transform="translate(12.177 2.951)" fill="#a4a4a4"/><path d="M82,8.064H70.767a.153.153,0,0,0-.161.161v6.852a.152.152,0,0,0,.161.161h7.658a.455.455,0,0,1,.481.483v1.7a.454.454,0,0,1-.481.483H70.767a.153.153,0,0,0-.161.161v7.014a.153.153,0,0,0,.161.161H82a.456.456,0,0,1,.483.483v1.7a.456.456,0,0,1-.483.483H68a.456.456,0,0,1-.483-.483V5.877A.456.456,0,0,1,68,5.394H82a.456.456,0,0,1,.483.483v1.7A.456.456,0,0,1,82,8.064" transform="translate(36.938 2.951)" fill="#a4a4a4"/><path d="M89.231,27.432V5.877a.456.456,0,0,1,.483-.483h7.624c4.473,0,7.336,2.509,7.336,6.434v9.652c0,3.925-2.864,6.434-7.336,6.434H89.714a.456.456,0,0,1-.483-.483m3.249-2.188h4.986a3.911,3.911,0,0,0,4.118-4.214V12.279a3.878,3.878,0,0,0-4.118-4.214H92.48a.153.153,0,0,0-.161.161V25.084a.153.153,0,0,0,.161.161" transform="translate(48.817 2.951)" fill="#a4a4a4"/><path d="M63.917,0H57.334a.451.451,0,0,0-.356.175L49.221,10.29a.444.444,0,0,0,.039.588L52.983,14.6a.448.448,0,0,0,.671-.043L64.271.719A.447.447,0,0,0,63.917,0" transform="translate(26.877 0)" fill="#a4a4a4"/><path d="M34.891,31.472h6.583a.451.451,0,0,0,.356-.175l7.757-10.115a.444.444,0,0,0-.039-.588l-3.724-3.727a.448.448,0,0,0-.671.043L34.537,30.753a.447.447,0,0,0,.354.719" transform="translate(18.844 9.156)" fill="#a4a4a4"/><path d="M49.221,21.182,56.979,31.3a.441.441,0,0,0,.354.175h6.583a.447.447,0,0,0,.356-.718L53.655,16.912a.446.446,0,0,0-.67-.045l-3.725,3.727a.446.446,0,0,0-.039.588" transform="translate(26.877 9.156)" fill="#a4a4a4"/><path d="M34.537.719,45.153,14.561a.448.448,0,0,0,.671.045l3.725-3.727a.448.448,0,0,0,.039-.588L41.83.175A.45.45,0,0,0,41.476,0H34.891a.447.447,0,0,0-.354.719" transform="translate(18.844 0)" fill="#a4a4a4"/></g></g></g></svg>