<svg xmlns="http://www.w3.org/2000/svg" width="64" height="64" viewBox="0 0 64 64"><g transform="translate(-100 -2272)"><rect width="64" height="64" transform="translate(100 2272)" fill="rgba(255,255,255,0)"/><g transform="translate(-141.102 2139.85)"><path d="M260.1,146.7c-1.3-3.9-6.205-4.76-7.6-3.931-1.594.95,1.939,7-1.858,18.217-1.57,4.624-3.029,9.139-3.324,12.974-1.137,14.8,13.072,22.29,22.471,18.308l13.819-5.95" fill="none" stroke="#0094e7" stroke-miterlimit="10" stroke-width="2"/><path d="M290.025,159.277V139.525a3.939,3.939,0,0,0-3.281-3.951c-4.215-.4-7.937-.6-11.674-.6s-7.474.2-11.732.6a3.93,3.93,0,0,0-3.242,3.945v42.439a3.934,3.934,0,0,0,3.281,3.949c4.217.4,8.241.6,12.307.6A95.979,95.979,0,0,0,286.328,186c1.9-.288,3.969-1.586,3.969-3.458" fill="none" stroke="#0094e7" stroke-miterlimit="10" stroke-width="2"/><path d="M296.328,168.671a3.232,3.232,0,0,0-3.037-2.055,3.1,3.1,0,0,0-1.223.245l-3.506,1.533a3.407,3.407,0,0,0-1.75,4.4,3.24,3.24,0,0,0,3.036,2.053,3.112,3.112,0,0,0,1.226-.247l3.5-1.533A3.4,3.4,0,0,0,296.328,168.671Z" fill="none" stroke="#0094e7" stroke-miterlimit="10" stroke-width="2"/><path d="M291.121,182.33l3.17-1.386a3.078,3.078,0,0,0,1.582-3.978,2.922,2.922,0,0,0-2.742-1.858,2.814,2.814,0,0,0-1.11.222l-3.169,1.384a3.082,3.082,0,0,0-1.583,3.982,2.928,2.928,0,0,0,2.747,1.856A2.782,2.782,0,0,0,291.121,182.33Z" fill="none" stroke="#0094e7" stroke-miterlimit="10" stroke-width="2"/><path d="M286.828,164.342a3.243,3.243,0,0,0,3.037,2.054,3.086,3.086,0,0,0,1.223-.247l2.377-1.084a3.406,3.406,0,0,0,1.752-4.4,3.246,3.246,0,0,0-3.037-2.056,3.081,3.081,0,0,0-1.227.247l-2.375,1.087A3.4,3.4,0,0,0,286.828,164.342Z" fill="none" stroke="#0094e7" stroke-miterlimit="10" stroke-width="2"/><line x2="7.158" transform="translate(271.481 181.719)" fill="none" stroke="#0094e7" stroke-linecap="round" stroke-miterlimit="10" stroke-width="2"/><line x2="2.475" transform="translate(273.822 139.035)" fill="none" stroke="#0094e7" stroke-linecap="round" stroke-miterlimit="10" stroke-width="2"/><line x2="27.767" transform="translate(260.096 177.415)" fill="none" stroke="#0094e7" stroke-miterlimit="10" stroke-width="2"/><line x2="29.929" transform="translate(260.096 142.801)" fill="none" stroke="#0094e7" stroke-miterlimit="10" stroke-width="2"/><path d="M290.025,155.528l6.4-2.738a3.85,3.85,0,0,0,1.978-4.976,3.286,3.286,0,0,0-4.332-2.044c-.576.166-3.285,1.123-4.045,1.442" fill="none" stroke="#0094e7" stroke-miterlimit="10" stroke-width="2"/><path d="M378.132,255.624l3,3.244,5.363-7.5" transform="translate(-107.183 -94.78)" fill="none" stroke="#0094e7" stroke-linecap="round" stroke-linejoin="round" stroke-width="2"/></g></g></svg>