<svg xmlns="http://www.w3.org/2000/svg" width="64" height="64" viewBox="0 0 64 64"><g transform="translate(-308 -2376)"><rect width="64" height="64" transform="translate(308 2376)" fill="none"/><g transform="translate(69.034 2028.006)"><path d="M276.191,404.866v1.608a.8.8,0,0,0,.41.7l11.1,6.314a.79.79,0,0,0,.4.105.806.806,0,0,0,.406-.109l12.546-7.347a.806.806,0,0,0,.4-.694v-11.95a.8.8,0,0,0-.4-.693l-11.021-6.5a.8.8,0,0,0-.813,0l-10.275,5.977m15.786-3.2-13.146,7.425a.764.764,0,0,0-.457.738v3.646l.515-.122.579.754.511-.123.581.753.647-.109.659.845V399.21a.662.662,0,0,1,.352-.657l13.17-7.47" transform="translate(-3.062 -3.448)" fill="none" stroke="#0094e7" stroke-linejoin="round" stroke-width="2"/><path d="M259.621,391.642l-11.848,8.631a2.825,2.825,0,0,0-.147,3.743c1.527,2.38,3.559,1.594,3.559,1.594l14-8.023" transform="translate(-0.298 -3.965)" fill="none" stroke="#0094e7" stroke-linejoin="round" stroke-width="2"/><path d="M245.6,351.508c-1.375.566-1.974,2.682-1.645,4.347,1.913,10.917,9.127,17.125,10.688,18.679.706,2.789,1.821,7.246,2.31,9.055a6.188,6.188,0,0,0,1.492,3.187c1.81,2.236,7.336,7.9,7.336,7.9l-5.738,11.688a2.826,2.826,0,0,0,1.515,3.492c1.539.847,3.371.532,3.961-.443l8.786-14.543a2.437,2.437,0,0,0,.065-2.334l-5.982-11.042-1.442-5.854A30.566,30.566,0,0,0,282.8,364.18c1.027-1.349,1.508-3.857.238-5.081a3.256,3.256,0,0,0-4.517.144c-7.491,7.808-12.494,8.746-16.88,7.853-8.576-1.744-10.722-9.436-12.163-13.807A2.641,2.641,0,0,0,245.6,351.508Z" transform="translate(0 -0.134)" fill="none" stroke="#0094e7" stroke-linejoin="round" stroke-width="2"/><path d="M258.465,355.5a6.883,6.883,0,1,0,7.948-5.621A6.879,6.879,0,0,0,258.465,355.5Z" transform="translate(-1.373 0)" fill="none" stroke="#0094e7" stroke-linejoin="round" stroke-width="2"/></g></g></svg>