<svg xmlns="http://www.w3.org/2000/svg" xmlns:xlink="http://www.w3.org/1999/xlink" width="380" height="60" viewBox="0 0 380 60"><defs><clipPath id="a"><rect width="134.522" height="40.105" fill="#a4a4a4"/></clipPath></defs><g transform="translate(-1170 -713)"><rect width="380" height="60" transform="translate(1170 713)" fill="none"/><g transform="translate(1292.739 725.947)"><path d="M96.278,5.035v22.4l4.228-5.014V.03Z" transform="translate(-31.106 -0.009)" fill="#a4a4a4"/><g transform="translate(0 0.001)"><g clip-path="url(#a)"><path d="M30.325,22.675V40.107l4.231-4.989V23.741l1.04.818a13.608,13.608,0,0,0,8.463,2.919,13.735,13.735,0,1,0-10.736-22.3l-.355.42c-4.281,5.053-11.524,13.59-11.908,14.027a11.149,11.149,0,0,1-2.033,1.965A9.468,9.468,0,0,1,4.784,16.84l-.3-.858h5.6l3.632-4.227H4.42l.258-.838A9.48,9.48,0,0,1,18.834,5.744L21.6,2.489A13.583,13.583,0,0,0,13.722,0a13.721,13.721,0,1,0,6.634,25.725l.44-.246c.279-.172.533-.339.77-.5l.048-.032a12.061,12.061,0,0,0,2.566-2.354c.085-.1.168-.2.243-.285C25.465,21.125,34.7,10.156,36.04,8.55c.838-1,1.411-1.6,1.68-1.87a9.493,9.493,0,1,1-2.594,10.307c-1.623,1.924-3.4,4.029-4.8,5.687" transform="translate(0 -0.001)" fill="#a4a4a4"/><path d="M127.082.011a13.735,13.735,0,1,0,6.685,25.73l.108-.059c.386-.219.755-.462,1.113-.705a12.947,12.947,0,0,0,2.727-2.464l.191-.219c.486-.552,11.792-14.029,11.909-14.164a.756.756,0,0,1,.063-.081l.058-.068c.582-.668.982-1.086,1.17-1.277a9.488,9.488,0,1,1-2.533,10.315l-2.938,3.5a13.662,13.662,0,1,0,1.718-15.955l-.058.064,0,0c-.146.158-.28.315-.411.475l-.2.238c-7.826,9.163-11.939,13.968-12.218,14.29a13.455,13.455,0,0,1-1.736,1.744l-.117.079c-.133.1-.269.2-.412.3l-.064.039a9.507,9.507,0,1,1,.083-16.041l2.754-3.245a13.589,13.589,0,0,0-7.9-2.5" transform="translate(-36.616 -0.004)" fill="#a4a4a4"/></g></g></g></g></svg>