<svg xmlns="http://www.w3.org/2000/svg" width="64" height="64" viewBox="0 0 64 64"><g transform="translate(-798 -2272)"><rect width="64" height="64" transform="translate(798 2272)" fill="none"/><g transform="translate(677.638 1927.568)"><path d="M176.481,398.225l-6.192,2.571a2.547,2.547,0,0,1-2.921-1.849,2.4,2.4,0,0,1,1.224-3.161l13.447-6.03a5.186,5.186,0,0,1,3.17.12l7.5,1.411-1.251,8.45-4.63,1.122a38.293,38.293,0,0,0-6.92,3.862,13.911,13.911,0,0,1-1.991.9l-8.765,2.657a1.286,1.286,0,0,1-1.171-.193s-6.253-4.236-8.39-5.755a1.658,1.658,0,0,1,.888-2.825,1.406,1.406,0,0,1,2.2-1.1l5.1,3.426Z" transform="translate(-9.635 -9.215)" fill="none" stroke="#0094e7" stroke-linecap="round" stroke-linejoin="round" stroke-width="2"/><path d="M139.8,389.3c-.247,1.905,1.806,3.118,3.007,3.124l1.748-2.511a4.092,4.092,0,0,0,2.219,1.266l1.979-3.788" transform="translate(-4.664 -8.656)" fill="none" stroke="#0094e7" stroke-linejoin="round" stroke-width="2"/><path d="M151,363.748l-11.566.516-10.719,6.548-3.184-.094-3.887,9.623,8.4,3.369a5.279,5.279,0,0,0,4.349-.127l7.06-3.279,8.663-2.9a2.5,2.5,0,0,0,1.338-3.351c-.588-1.705-1.758-2.236-2.909-1.915l-8.638,2.79,2.346-5.475s4.275-.507,4.948-.582" transform="translate(0 -2.575)" fill="none" stroke="#0094e7" stroke-linejoin="round" stroke-width="2"/><path d="M173.929,365.088l1.9-2.564-11.847-8.786-12.87,17.356" transform="translate(-7.58)" fill="none" stroke="#0094e7" stroke-linejoin="round" stroke-width="2"/><path d="M153.714,371.62l11.353-12.5,10.918,9.917L159.3,387.412l-9.466-8.675" transform="translate(-7.25 -1.385)" fill="none" stroke="#0094e7" stroke-linejoin="round" stroke-width="2"/><path d="M161.214,375.458a4.1,4.1,0,1,1,.28,3.227" transform="translate(-10.179 -4.863)" fill="none" stroke="#0094e7" stroke-linejoin="round" stroke-width="2"/><path d="M172.356,362.713a3.966,3.966,0,0,1-5.6.27" transform="translate(-11.604 -2.309)" fill="none" stroke="#0094e7" stroke-linejoin="round" stroke-width="2"/><path d="M180.844,368.985a3.966,3.966,0,0,0,.269,5.6" transform="translate(-14.963 -3.922)" fill="none" stroke="#0094e7" stroke-linejoin="round" stroke-width="2"/><path d="M158.637,393.14a3.967,3.967,0,0,1,5.6-.268" transform="translate(-9.516 -9.801)" fill="none" stroke="#0094e7" stroke-linejoin="round" stroke-width="2"/></g></g></svg>